<?xml version="1.0" encoding="utf-8"?>
<!-- Generator: Adobe Illustrator 24.2.1, SVG Export Plug-In . SVG Version: 6.00 Build 0)  -->
<svg version="1.1" id="Ebene_1" xmlns="http://www.w3.org/2000/svg" xmlns:xlink="http://www.w3.org/1999/xlink" x="0px" y="0px"
	 viewBox="0 0 283.46 283.46" style="enable-background:new 0 0 283.46 283.46;" xml:space="preserve">
<style type="text/css">
	.st0{fill:#181716;}
</style>
<g>
	<path class="st0" d="M55.9,43.65c0-22.9,17.61-39.1,46.5-39.1c35.58,0,62.35,25.71,67.28,60.59c1.06,9.16,3.88,10.92,12.33,8.1
		c16.91-5.28,22.19-13.39,22.19-19.02c0-10.92-19.37-11.27-19.37-23.25c0-7.05,4.93-11.62,14.44-11.62
		c12.68,0,25.01,10.22,25.01,27.48c0,22.19-40.51,36.28-47.55,39.8c-3.52,1.76-4.58,5.99-4.58,11.62c0,16.56,1.41,27.48,7.04,27.48
		c3.52,0,13.39-5.99,21.84-5.99c14.44,0,27.48,12.68,27.48,28.18c0,34.87-71.15,51.78-71.15,87.36c0,13.03,10.57,25.01,23.95,25.01
		c17.26,0,21.13-26.42,37.69-26.42c13.39,0,20.43,8.81,20.43,18.67c0,16.2-19.73,26.07-42.27,26.07
		c-54.95,0-105.32-52.13-105.32-111.31c0-29.59,13.03-60.23,34.52-60.23c8.45,0,15.5,2.11,16.56,12.33
		c0.35,3.52,1.41,4.23,3.17,4.23c3.17,0,8.45-8.1,8.45-24.66c0-6.34-4.58-7.4-12.68-7.4C113.67,91.56,55.9,89.45,55.9,43.65z
		 M104.51,22.52c-16.91,0-26.07,10.57-26.07,22.54c0,24.66,29.59,34.87,63.4,34.87c5.99,0,10.92-1.06,10.92-9.16
		C152.07,41.54,132.34,22.52,104.51,22.52z"/>
</g>
<g>
</g>
<g>
</g>
<g>
</g>
<g>
</g>
<g>
</g>
<g>
</g>
</svg>
