<?xml version="1.0" encoding="utf-8"?>
<!-- Generator: Adobe Illustrator 24.2.1, SVG Export Plug-In . SVG Version: 6.00 Build 0)  -->
<svg version="1.1" xmlns="http://www.w3.org/2000/svg" xmlns:xlink="http://www.w3.org/1999/xlink" x="0px" y="0px"
	 viewBox="0 0 56.69 56.69" style="enable-background:new 0 0 56.69 56.69;" xml:space="preserve">
<style type="text/css">
	.st0{fill:#181716;}
</style>
<g id="Ebene_1">
</g>
<g id="Ebene_3">
</g>
<g id="Ebene_4">
	<path class="st0" d="M39.99,20.65c-0.02-0.06-0.08-0.05-0.12-0.05c-1.83,0.3-2.82,0.96-3.7,2.14c-0.79,1.05-1.1,2.68-1.15,3.17
		c-1.12-4.45,1.51-5,2.53-7.49c1.99-4.86-1.45-9.32-2.95-10.16c-0.05-0.03-0.25-0.08-0.18,0.12c0.51,1.65,1.05,4.75-0.22,7.24
		c-1.14,2.23-2.43,2.97-4.12,3.36c1.55-3.05-1.17-5.67-1.2-5.7c-0.03-0.04-0.08-0.04-0.12-0.01c-0.03,0.03-0.05,0.08-0.03,0.12
		c0.03,2.12-0.47,4.41-4.32,7.07c-3.85,2.67-4.98,5.64-4.53,8.36c0.32,1.93,1.71,3.72,4.09,4.19c0.53,0.11,1.1-0.03,1.43-0.14
		c-1.46,1.18-2.59,2.17-3.42,3.32c-1.57-1.22-3.13-2.03-4.63-2.39c-2.03-0.49-4.32,0.3-4.81,2.29c-0.22,0.9,0.23,1.95,1.23,2.2
		c0.56,0.13,1.51,0.01,1.97-0.76c0.18-0.3,0.19-0.51,0.05-0.79c-0.27-0.34-0.35-0.75-0.23-1.22c0.12-0.46,0.69-0.82,1.56-0.61
		c1.03,0.25,2.27,0.97,4.04,2.49c-0.49,0.73-0.86,1.65-1.09,2.62c-0.53,2.19,0.48,3.53,1.68,3.81c0.73,0.18,1.33,0.01,1.99-0.39
		c0.96,0.09,1.71-0.26,1.93-1.12c0.09-0.37,0.04-0.63-0.08-0.97l0.05-0.06c1.53,1.39,2.62,1.97,3.65,2.22
		c1.33,0.32,2.75,0.27,4.1-0.24c1.61-0.56,2.78-1.89,3-2.82c0.28-1.16-0.33-1.98-1.06-2.16c-0.67-0.15-1.33,0.14-1.73,0.61
		c-0.21,0.26-0.23,0.51-0.09,0.68c0.34,0.47,0.39,1.12,0.24,1.75c-0.21,0.87-1.03,1.65-2.82,1.21c-1.4-0.33-2.45-0.9-3.97-2.08
		c-1.15-0.91-2.74-2.35-3.8-3.34c0.82-1.25,1.87-2.34,3.35-3.58c0.52,1.4,1.41,1.96,2.16,2.29c1.92,0.82,4.18,1.06,6.61-0.54
		c2.72-1.79,3.7-4.53,2.95-8.2c-0.64-3.13,1.5-5.87,1.75-6.29C39.99,20.75,40.02,20.71,39.99,20.65z M23.71,39.64
		c0.99,0.87,0.91,1.62,0.84,1.89c-0.19,0.8-0.89,1.19-1.58,1.03c-0.96-0.24-1.46-1.09-1.01-2.95c0.12-0.46,0.27-0.82,0.43-1.2
		C22.6,38.56,23.37,39.31,23.71,39.64z M25.9,32.75c0.11,0.02,0.21,0.08,0.29,0.19L25.9,32.75z M32.45,30.58
		c-0.29,2.75-2.13,3.19-3.64,3.06c-0.43-0.06-1.18-0.23-2.43-1.07c-1.57-1.06-1.89-1.53-2.19-2.09c-0.28-0.65-0.31-1.28-0.1-1.87
		c0.34-0.96,1.27-1.45,2.05-1.93c0.82-0.5,1.08-1.4,1.23-2.04c1.33,1.63-0.04,3.37-0.12,3.43c-0.03,0.03-0.04,0.08-0.02,0.12
		c0.03,0.05,0.12,0.03,0.12,0.03s1.2-0.53,1.37-2c0.39-3.45,2.94-3.77,3.77-3.78c-2.8,2.11-1.27,5.92-1.26,5.95
		c0.02,0.04,0.05,0.06,0.09,0.06c0.04,0,0.08-0.03,0.09-0.06c0.42-1.32,1.72-1.5,2.33-1.51C33.09,27.36,32.61,28.13,32.45,30.58z"/>
	<g>
	</g>
	<g>
	</g>
	<g>
	</g>
	<g>
	</g>
	<g>
	</g>
	<g>
	</g>
</g>
</svg>
